<svg version="1.1" xmlns="http://www.w3.org/2000/svg" xmlns:xlink="http://www.w3.org/1999/xlink" width="214.65433" height="174.95022" viewBox="0,0,214.65433,174.95022"><defs><linearGradient x1="243.57048" y1="-6873.27338" x2="243.57048" y2="4643.17982" gradientUnits="userSpaceOnUse" id="color-1"><stop offset="0" stop-color="#000000"/><stop offset="1" stop-color="#000000" stop-opacity="0"/></linearGradient><radialGradient cx="216.13472" cy="129.5643" r="63.70088" gradientUnits="userSpaceOnUse" id="color-2"><stop offset="0" stop-color="#dc6868"/><stop offset="1" stop-color="#c33c3c"/></radialGradient><linearGradient x1="265.48326" y1="124.30585" x2="265.48326" y2="173.2499" gradientUnits="userSpaceOnUse" id="color-3"><stop offset="0" stop-color="#9e1e1e"/><stop offset="1" stop-color="#963737"/></linearGradient><linearGradient x1="225.84263" y1="116.21592" x2="288.53955" y2="116.21592" gradientUnits="userSpaceOnUse" id="color-4"><stop offset="0" stop-color="#586273"/><stop offset="1" stop-color="#3d4556"/></linearGradient><radialGradient cx="241.61798" cy="100.84506" r="23.86528" gradientUnits="userSpaceOnUse" id="color-5"><stop offset="0" stop-color="#dc6868"/><stop offset="1" stop-color="#c33c3c"/></radialGradient><linearGradient x1="235.14604" y1="188.62076" x2="266.69675" y2="188.62076" gradientUnits="userSpaceOnUse" id="color-6"><stop offset="0" stop-color="#617283"/><stop offset="1" stop-color="#313043"/></linearGradient><linearGradient x1="230.69658" y1="148.17113" x2="243.64047" y2="148.17113" gradientUnits="userSpaceOnUse" id="color-7"><stop offset="0" stop-color="#adaeae"/><stop offset="1" stop-color="#7b7474"/></linearGradient><linearGradient x1="226.24712" y1="159.09253" x2="237.57302" y2="159.09253" gradientUnits="userSpaceOnUse" id="color-8"><stop offset="0" stop-color="#adaeae"/><stop offset="1" stop-color="#7b7474"/></linearGradient><linearGradient x1="262.65179" y1="147.56438" x2="283.6856" y2="147.56438" gradientUnits="userSpaceOnUse" id="color-9"><stop offset="0" stop-color="#7b7474"/><stop offset="1" stop-color="#adaeae"/></linearGradient><linearGradient x1="226.65162" y1="167.7892" x2="237.57302" y2="167.7892" gradientUnits="userSpaceOnUse" id="color-10"><stop offset="0" stop-color="#1b1b1b"/><stop offset="1" stop-color="#444040"/></linearGradient><linearGradient x1="241.61798" y1="146.55314" x2="264.67427" y2="146.55314" gradientUnits="userSpaceOnUse" id="color-11"><stop offset="0" stop-color="#adaeae"/><stop offset="1" stop-color="#7b7474"/></linearGradient><radialGradient cx="140.08941" cy="95.99111" r="60.32912" gradientUnits="userSpaceOnUse" id="color-12"><stop offset="0" stop-color="#40403f"/><stop offset="1" stop-color="#212121"/></radialGradient><linearGradient x1="171.23563" y1="121.67662" x2="195.9099" y2="121.67662" gradientUnits="userSpaceOnUse" id="color-13"><stop offset="0" stop-color="#47474c"/><stop offset="1" stop-color="#373739"/></linearGradient></defs><g transform="translate(-134.14927,-50.37816)"><g data-paper-data="{&quot;isPaintingLayer&quot;:true}" fill-rule="nonzero" stroke-linejoin="miter" stroke-miterlimit="10" stroke-dasharray="" stroke-dashoffset="0" style="mix-blend-mode: normal"><path d="M144.30176,172.73015c0.25437,-49.81097 71.09297,-57.65299 98.93781,-57.65299c27.29341,0 106.49611,10.99592 105.55573,58.37508c-0.87365,44.01712 -78.82637,51.87615 -106.8793,51.87615c-27.0606,0 -97.82513,-11.29928 -97.61423,-52.59823z" data-paper-data="{&quot;index&quot;:null}" fill="url(#color-1)" stroke="none" stroke-width="0" stroke-linecap="butt"/><g data-paper-data="{&quot;index&quot;:null}" stroke-linecap="butt"><g stroke="#2b3446" stroke-width="2"><path d="M301.88605,154.45842c-14.47037,0 -26.20093,-11.73055 -26.20093,-26.20092c0,-14.47037 11.73056,-26.20093 26.20093,-26.20093c14.47037,0 26.20093,11.73056 26.20093,26.20093c0,14.47037 -11.73056,26.20092 -26.20093,26.20092z" fill="#61617f"/><path d="M304.00524,109.37742c13.51278,0 24.46704,10.60925 24.46704,23.69642c0,13.08718 -10.95427,23.69643 -24.46704,23.69643c-13.51278,0 -24.46704,-10.60925 -24.46704,-23.69643c0,-13.08718 10.95427,-23.69642 24.46704,-23.69642z" fill="#3e3e57"/></g><g stroke="#2b3446" stroke-width="2"><path d="M216.59393,154.98285c-14.47037,0 -26.20093,-11.73056 -26.20093,-26.20093c0,-14.47037 11.73056,-26.20092 26.20093,-26.20092c14.47037,0 26.20093,11.73055 26.20093,26.20092c0,14.47037 -11.73056,26.20093 -26.20093,26.20093z" fill="#61617f"/><path d="M218.71312,109.90184c13.51278,0 24.46704,10.60925 24.46704,23.69642c0,13.08718 -10.95427,23.69642 -24.46704,23.69642c-13.51278,0 -24.46704,-10.60925 -24.46704,-23.69642c0,-13.08718 10.95427,-23.69642 24.46704,-23.69642z" fill="#3e3e57"/></g><path d="M303.61993,124.78972c5.21359,0 9.44004,4.22645 9.44004,9.44004c0,5.21359 -4.22645,9.44004 -9.44004,9.44004c-5.21359,0 -9.44004,-4.22645 -9.44004,-9.44004c0,-5.21359 4.22645,-9.44004 9.44004,-9.44004z" fill="#4a4a4a" stroke="#b8b8b8" stroke-width="5.5"/><path d="M217.9425,124.15822c5.21359,0 9.44004,4.22645 9.44004,9.44004c0,5.21359 -4.22645,9.44004 -9.44004,9.44004c-5.21359,0 -9.44004,-4.22645 -9.44004,-9.44004c0,-5.21359 4.22645,-9.44004 9.44004,-9.44004z" fill="#4a4a4a" stroke="#b8b8b8" stroke-width="5.5"/></g><g><g><path d="M221.79767,189.42975l3.64047,-62.29243l89.79818,-1.61799c0,0 5.7868,7.25896 9.36539,16.47007c2.77373,7.13946 3.73637,15.93618 2.72213,20.36194c-2.10526,9.1866 -7.63806,23.03344 -7.63806,23.03344z" fill="#941616" stroke="none" stroke-width="0" stroke-linecap="butt"/><path d="M196.3144,174.86788c0,0 -4.66956,-9.0599 -1.59155,-18.68804c1.11507,-3.48798 1.90546,-7.86403 4.02599,-13.10034c3.84906,-9.50462 9.29596,-19.98715 9.29596,-19.98715c0,0 34.25244,-9.20274 52.94317,-11.32514c18.09942,-2.05525 46.15842,4.4487 46.15842,4.4487c0,0 12.09995,12.45461 13.74114,21.18804c0.9529,5.07079 1.35703,15.7685 -1.93886,22.72332c-3.77631,7.96855 -11.39778,11.90913 -11.39778,11.90913c0,0 -22.44589,0.83381 -34.35007,1.43984c-20.38722,1.03789 -76.88641,1.39163 -76.88641,1.39163z" fill="url(#color-2)" stroke="#612323" stroke-width="2" stroke-linecap="butt"/><path d="M218.1572,171.22742c0,0 -3.23597,-10.55737 -3.23597,-17.79784c0,-8.77677 12.94388,-26.29226 12.94388,-26.29226l57.43847,-1.21349c0,0 11.21753,4.63775 14.29321,9.92974c5.06189,8.70943 -8.63026,28.09291 -8.63026,28.09291c0,0 -38.36241,0.01869 -45.63858,0.94843c-2.08604,0.26655 2.68639,7.93783 0.622,8.40629c-11.02282,2.50134 -27.79276,-2.07378 -27.79276,-2.07378z" fill="url(#color-3)" stroke="none" stroke-width="0" stroke-linecap="butt"/><g><path d="M225.43813,148.57563l-4.04496,-21.8428c0,0 9.14635,-22.90444 10.92996,-22.752c11.30883,0.96651 37.50873,0.19627 50.9596,0.14759c4.92632,-0.01783 8.49279,0.76161 8.49279,0.76161c0,0 0.98034,15.40845 -0.27552,22.87384c-1.16415,6.92025 -7.00541,20.40725 -7.00541,20.40725z" fill="#3e3e57" stroke="#2b3446" stroke-width="2" stroke-linecap="butt"/><path d="M223.41565,128.35081c0,0 0.13611,-5.33333 1.05397,-8.13521c1.41881,-4.3311 6.63146,-15.32558 6.63146,-15.32558c0,0 38.37322,0.38943 48.51879,0.59934c4.63654,0.09593 10.13318,0.61415 10.13318,0.61415c0,0 1.05329,-0.14616 0.70037,3.6282c-0.98783,10.5644 -7.57681,16.19212 -7.57681,16.19212z" fill="url(#color-4)" stroke="none" stroke-width="0" stroke-linecap="butt"/><path d="M225.84263,140.89019c0,0 -3.65797,-9.15754 -3.05478,-14.18417c0.61021,-5.08511 6.69524,-16.15306 6.69524,-16.15306" fill="none" stroke="#687182" stroke-width="2" stroke-linecap="round"/><path d="M254.96636,127.13732l-31.14621,-0.4045" fill="none" stroke="#687182" stroke-width="2" stroke-linecap="round"/></g><path d="M279.23614,114.59793c0,5.36153 -9.77935,9.70791 -21.8428,9.70791c-12.06345,0 -21.8428,-4.34638 -21.8428,-9.70791c0,-5.36153 9.77935,-9.70791 21.8428,-9.70791c12.06345,0 21.8428,4.34638 21.8428,9.70791z" fill="#5b5a5a" stroke="#32333f" stroke-width="2" stroke-linecap="butt"/><path d="M281.40466,105.84506c0,6.92531 -10.68485,12.53939 -23.86528,12.53939c-13.18043,0 -23.86528,-5.61408 -23.86528,-12.53939c0,-1.81464 -0.88437,-5.96623 0.43554,-7.5234c3.71733,-4.38554 13.70298,-5.01599 23.42974,-5.01599c8.63906,0 18.22848,-0.41961 22.41731,3.19249c2.20198,1.8988 1.44797,6.96075 1.44797,9.3469z" fill="#612323" stroke="#612323" stroke-width="2" stroke-linecap="butt"/><path d="M281.25862,100.44056c0,6.92531 -10.68485,12.53939 -23.86528,12.53939c-13.18043,0 -23.86528,-5.61407 -23.86528,-12.53939c0,-6.92531 10.68485,-12.53939 23.86528,-12.53939c13.18043,0 23.86528,5.61407 23.86528,12.53939z" fill="url(#color-5)" stroke="#612323" stroke-width="2" stroke-linecap="butt"/><path d="M248.49442,108.12599l6.06744,-18.20233" fill="none" stroke="#db6666" stroke-width="3.5" stroke-linecap="round"/><path d="M260.22481,89.51916l-6.06744,20.22481" fill="none" stroke="#db6666" stroke-width="3.5" stroke-linecap="round"/><path d="M235.55054,199.13766c0,0 1.01872,-11.05096 2.50597,-14.69472c0.49621,-1.2157 3.0383,-4.17838 6.54171,-5.55638c4.03725,-1.58798 9.21842,-1.46953 11.83673,-0.68721c5.15753,1.54102 6.92183,6.76283 7.35898,8.41777c1.00914,3.82032 0.88033,12.52054 0.88033,12.52054c0,0 -0.37175,-0.26494 -1.46462,-2.11316c-1.82195,-3.08123 -5.64812,-8.40374 -13.09724,-8.40374c-4.96493,0 -9.33645,5.60158 -11.97596,8.68898c-1.11529,1.30454 -2.58591,1.82793 -2.58591,1.82793z" fill="url(#color-6)" stroke="#232b34" stroke-width="2" stroke-linecap="butt"/><path d="M236.35953,154.64307l-6.06744,-1.61799c0,0 -0.60321,-6.1498 1.48488,-7.73168c2.33394,-1.76814 11.86349,-1.97623 11.86349,-1.97623v7.28093c0,0 -4.85396,0.13483 -6.06744,0.80899c-1.21349,0.67416 -1.21349,3.23597 -1.21349,3.23597z" fill="url(#color-7)" stroke="#393636" stroke-width="2" stroke-linecap="butt"/><path d="M226.24712,166.37346l1.61799,-14.56187c0,0 2.31573,-1.21349 3.64047,-1.21349c1.59213,0 5.25845,1.21349 5.25845,1.21349l0.80899,14.56187z" fill="url(#color-8)" stroke="#393636" stroke-width="2" stroke-linecap="butt"/><path d="M261.8428,153.83407l1.21349,-8.49442c0,0 3.61698,0.35247 8.82173,0.83411c2.99777,0.27741 7.06482,-5.87428 8.61358,-5.55385c2.26599,0.46883 5.62098,4.71974 5.62098,4.71974c0,0 -3.35519,6.4983 -6.87103,7.89251c-4.18668,1.66023 -17.39874,0.60191 -17.39874,0.60191z" fill="url(#color-9)" stroke="#393636" stroke-width="2" stroke-linecap="butt"/><path d="M237.57302,167.7892c0,2.79246 -2.44484,5.0562 -5.4607,5.0562c-3.01586,0 -5.4607,-2.26374 -5.4607,-5.0562c0,-2.79246 2.44484,-5.0562 5.4607,-5.0562c3.01586,0 5.4607,2.26374 5.4607,5.0562z" fill="url(#color-10)" stroke="#777778" stroke-width="2" stroke-linecap="butt"/><path d="M242.02248,156.66555l-0.4045,-19.41582h23.05629l-1.21349,18.60683z" fill="url(#color-11)" stroke="#393636" stroke-width="2" stroke-linecap="butt"/><path d="M246.87644,155.45206v-10.5169h15.77536l-0.4045,10.11241z" fill="#777778" stroke="none" stroke-width="0" stroke-linecap="butt"/></g><g><g stroke="#751313" stroke-width="2" stroke-linecap="butt"><path d="M151.81981,154.23857c0,0 -4.39669,-11.43136 -5.0277,-15.00708c-0.29012,-1.64399 1.38723,-5.62223 1.38723,-5.62223c0,0 8.22372,4.50568 12.62801,7.1835c8.43337,5.12751 9.21479,15.87279 9.21479,15.87279z" fill="#751313"/><path d="M154.96267,145.28449l5.57516,-11.95931l7.95943,3.97972l-6.38415,13.5773c0,0 -2.76076,-0.71894 -3.85075,-1.57224c-1.26681,-0.99172 -3.29969,-4.02546 -3.29969,-4.02546z" fill="#9b3434"/><path d="M147.37035,135.22725c0,0 1.6419,1.48284 2.87866,3.53453c2.05306,3.40587 4.41002,8.37929 6.7261,10.73907c1.9567,1.99362 5.56559,3.38326 8.2855,4.8948c2.01893,1.12199 3.54805,2.6744 3.54805,2.6744c0,0 -12.90541,3.1176 -18.11077,-2.51685c-6.34765,-6.8709 -3.32754,-19.32595 -3.32754,-19.32595z" fill="#9b3434"/></g><path d="M191.46044,172.03641c0,0 -20.74457,-23.57137 -30.19088,-36.21175c-9.29285,-12.43503 -26.03411,-39.02456 -26.03411,-39.02456c0,0 4.1558,-14.21849 8.84982,-21.19933c4.26479,-6.34251 14.83141,-24.53387 23.91835,-24.21856c2.94307,0.10212 9.71364,11.55926 10.8461,13.6543c7.45549,13.79266 28.38608,59.67384 28.38608,59.67384c0,0 -3.14294,3.36136 -4.16631,6.43149c-0.79774,2.39321 -33.35788,-67.2125 -34.93079,-61.6926c-0.15938,0.55932 -5.52667,6.0396 -9.4007,12.7506c-4.27988,7.41405 -7.09399,16.1518 -7.00599,17.43787c0.90112,13.1685 30.13658,41.55525 40.92372,57.71451c8.23809,12.34077 -1.19529,14.68419 -1.19529,14.68419z" fill="url(#color-12)" stroke="#1a1a1a" stroke-width="2" stroke-linecap="butt"/><path d="M151.01081,117.8339c0,0 -3.72461,-4.98706 -7.1793,-11.1563c-2.05637,-3.67219 -4.80065,-8.2856 -4.45153,-11.07855c1.1692,-9.35358 18.50726,-33.18114 18.50726,-33.18114" fill="none" stroke="#878787" stroke-width="4" stroke-linecap="round"/><path d="M170.83113,130.77779l18.20233,-27.50575c0,0 3.54148,1.11451 4.65171,2.22473c1.04287,1.04287 1.82023,4.24721 1.82023,4.24721c0,0 -2.27674,6.13514 -4.34741,9.98067c-3.13671,5.82532 -12.23694,20.35655 -12.23694,20.35655z" fill="url(#color-13)" stroke="#242424" stroke-width="2" stroke-linecap="butt"/><path d="M173.66261,131.18228l14.96636,-23.86528" fill="none" stroke="#868686" stroke-width="2.5" stroke-linecap="round"/><path d="M221.39317,134.01376c0,0 -13.51487,2.15114 -21.47628,0.59934c-3.46998,-0.67635 -8.68239,-2.88061 -13.45467,-5.1499c-1.23605,-0.58776 -2.44257,-3.20236 -3.58165,-3.77342c-4.53735,-2.27476 -8.00448,-2.19293 -8.00448,-2.19293" fill="none" stroke="#1c1c25" stroke-width="2" stroke-linecap="round"/><path d="M171.23563,129.96879c0,0 3.69748,-1.07198 5.13032,-0.05705c1.74225,1.23409 4.57759,6.93349 4.57759,6.93349" fill="none" stroke="#1c1c25" stroke-width="2" stroke-linecap="round"/></g></g><g stroke-linecap="butt"><g stroke="#2b3446" stroke-width="2"><path d="M180.13455,186.12634c0,-15.191 12.31475,-27.50575 27.50575,-27.50575c15.191,0 27.50575,12.31475 27.50575,27.50575c0,15.191 -12.31474,27.50574 -27.50575,27.50574c-15.191,0 -27.50575,-12.31474 -27.50575,-27.50574z" fill="#61617f"/><path d="M231.10108,191.18254c0,13.73892 -11.4998,24.87653 -25.68552,24.87653c-14.18572,0 -25.68551,-11.1376 -25.68551,-24.87653c0,-13.73892 11.49979,-24.87652 25.68551,-24.87652c14.18572,0 25.68552,11.1376 25.68552,24.87652z" fill="#3e3e57"/></g><g stroke="#2b3446" stroke-width="2"><path d="M269.67427,186.67688c0,-15.191 12.31475,-27.50574 27.50575,-27.50574c15.19101,0 27.50575,12.31474 27.50575,27.50574c0,15.191 -12.31474,27.50575 -27.50575,27.50575c-15.19101,0 -27.50575,-12.31475 -27.50575,-27.50575z" fill="#61617f"/><path d="M320.64081,191.73308c0,13.73892 -11.4998,24.87652 -25.68552,24.87652c-14.18572,0 -25.68552,-11.13759 -25.68552,-24.87652c0,-13.73892 11.4998,-24.87652 25.68552,-24.87652c14.18572,0 25.68552,11.1376 25.68552,24.87652z" fill="#3e3e57"/></g><path d="M215.73022,192.39603c0,5.47323 -4.43693,9.91016 -9.91016,9.91016c-5.47323,0 -9.91016,-4.43693 -9.91016,-9.91016c0,-5.47323 4.43693,-9.91016 9.91016,-9.91016c5.47323,0 9.91016,4.43693 9.91016,9.91016z" fill="#4a4a4a" stroke="#b8b8b8" stroke-width="5.5"/><path d="M305.67444,191.73308c0,5.47323 -4.43693,9.91016 -9.91016,9.91016c-5.47323,0 -9.91015,-4.43693 -9.91015,-9.91016c0,-5.47323 4.43692,-9.91016 9.91015,-9.91016c5.47323,0 9.91016,4.43693 9.91016,9.91016z" fill="#4a4a4a" stroke="#b8b8b8" stroke-width="5.5"/></g></g></g></svg>